<svg xmlns="http://www.w3.org/2000/svg" xmlns:xlink="http://www.w3.org/1999/xlink" width="1000" zoomAndPan="magnify" viewBox="0 0 750 374.999991" height="500" preserveAspectRatio="xMidYMid meet" version="1.0"><defs><clipPath id="7c7a9990c0"><path d="M 373 89.078125 L 438 89.078125 L 438 193 L 373 193 Z M 373 89.078125 " clip-rule="nonzero"/></clipPath><clipPath id="1543a89207"><path d="M 305 89.078125 L 374 89.078125 L 374 214 L 305 214 Z M 305 89.078125 " clip-rule="nonzero"/></clipPath><clipPath id="9eb4d869c2"><path d="M 306.386719 227.425781 L 442.625 227.425781 L 442.625 285.578125 L 306.386719 285.578125 Z M 306.386719 227.425781 " clip-rule="nonzero"/></clipPath><clipPath id="4835f4f2ba"><path d="M 276.753906 183 L 473.253906 183 L 473.253906 240 L 276.753906 240 Z M 276.753906 183 " clip-rule="nonzero"/></clipPath></defs><path fill="#2aa8e2" d="M 465.871094 237.261719 C 465.574219 236.796875 465.203125 236.074219 464.585938 235.230469 C 463.394531 233.460938 461.492188 231.09375 458.714844 228.640625 C 455.949219 226.175781 452.246094 223.800781 447.851562 222.027344 C 443.460938 220.292969 438.390625 219.207031 433.097656 219.105469 C 427.792969 218.992188 422.804688 219.796875 418.40625 221.011719 C 414 222.222656 410.183594 223.832031 407.078125 225.414062 C 403.972656 226.992188 401.5625 228.507812 399.945312 229.632812 C 398.320312 230.757812 397.460938 231.453125 397.460938 231.453125 C 397.460938 231.453125 398.503906 231.261719 400.34375 230.921875 C 402.183594 230.566406 404.84375 230.109375 408.082031 229.613281 C 414.570312 228.632812 423.425781 227.648438 432.953125 227.828125 C 437.722656 227.925781 442.210938 228.367188 446.265625 229.152344 C 450.304688 229.980469 453.921875 231.101562 456.882812 232.449219 C 459.847656 233.765625 462.230469 235.171875 463.800781 236.238281 C 464.621094 236.746094 465.222656 237.253906 465.652344 237.535156 C 466.074219 237.828125 466.300781 237.988281 466.300781 237.988281 C 466.300781 237.988281 466.15625 237.738281 465.871094 237.261719 " fill-opacity="1" fill-rule="nonzero"/><g clip-path="url(#7c7a9990c0)"><path fill="#2aa8e2" d="M 437.902344 192.800781 C 437.105469 192.570312 436.304688 192.375 435.511719 192.203125 C 433.96875 191.820312 432.464844 191.589844 431.015625 191.363281 L 430.089844 191.207031 L 429.972656 191.195312 L 429.855469 191.175781 L 428.9375 191.074219 C 427.683594 190.949219 426.390625 190.808594 425.039062 190.742188 L 424.878906 190.730469 C 424.691406 190.71875 424.507812 190.707031 424.320312 190.707031 C 423.898438 190.683594 423.476562 190.664062 423.039062 190.640625 C 422.078125 188.355469 421.046875 186.105469 419.957031 183.894531 C 414.484375 172.824219 408.363281 162.632812 403.007812 153.179688 C 397.609375 143.742188 392.863281 135.042969 389.019531 127.242188 C 385.167969 119.445312 382.195312 112.570312 379.976562 106.867188 C 378.84375 104.035156 377.972656 101.464844 377.179688 99.261719 C 376.4375 97.027344 375.804688 95.152344 375.335938 93.613281 C 374.542969 90.914062 374.085938 89.34375 373.988281 89.003906 C 374.152344 89.34375 374.847656 90.824219 376.035156 93.339844 C 376.71875 94.78125 377.625 96.535156 378.65625 98.628906 C 379.746094 100.6875 380.953125 103.085938 382.445312 105.710938 C 385.363281 111 389.140625 117.34375 393.808594 124.511719 C 398.46875 131.6875 404.066406 139.664062 410.355469 148.484375 C 416.605469 157.324219 423.667969 166.921875 430.429688 178.214844 C 433.09375 182.707031 435.675781 187.523438 437.902344 192.800781 " fill-opacity="1" fill-rule="nonzero"/></g><g clip-path="url(#1543a89207)"><path fill="#2aa8e2" d="M 373.921875 89.003906 C 373.832031 89.34375 373.375 90.914062 372.585938 93.605469 C 372.117188 95.140625 371.472656 97.015625 370.746094 99.261719 C 369.949219 101.464844 369.078125 104.035156 367.9375 106.867188 C 365.726562 112.570312 362.746094 119.445312 358.898438 127.253906 C 355.054688 135.042969 350.300781 143.742188 344.902344 153.179688 C 339.558594 162.632812 333.425781 172.824219 327.964844 183.894531 C 325.242188 189.433594 322.808594 195.21875 321.0625 201.15625 C 320.257812 204.125 319.636719 207.121094 319.296875 210.109375 C 319.246094 210.839844 319.191406 211.589844 319.136719 212.332031 C 319.113281 212.691406 319.101562 213.050781 319.101562 213.410156 L 305.214844 209.234375 C 305.269531 208.878906 305.324219 208.507812 305.363281 208.148438 C 306.054688 204.222656 307.109375 200.519531 308.339844 197.007812 C 310.90625 190.050781 314.117188 183.875 317.492188 178.214844 C 324.253906 166.921875 331.320312 157.324219 337.566406 148.484375 C 343.855469 139.664062 349.453125 131.6875 354.113281 124.511719 C 358.78125 117.34375 362.546875 111 365.476562 105.710938 C 366.964844 103.085938 368.164062 100.6875 369.265625 98.628906 C 370.296875 96.546875 371.199219 94.789062 371.886719 93.339844 C 373.074219 90.824219 373.769531 89.34375 373.921875 89.003906 " fill-opacity="1" fill-rule="nonzero"/></g><g clip-path="url(#9eb4d869c2)"><path fill="#1677bc" d="M 442.273438 228.519531 C 441.390625 233.816406 439.898438 239.101562 437.710938 244.214844 C 434.402344 251.992188 429.535156 259.351562 423.332031 265.640625 C 417.128906 271.933594 409.574219 277.164062 401.125 280.75 C 398.96875 281.542969 396.828125 282.394531 394.636719 283.125 C 392.398438 283.710938 390.183594 284.332031 387.886719 284.867188 C 385.460938 285.261719 382.957031 285.652344 380.570312 285.949219 C 378.519531 286.058594 376.457031 286.152344 374.398438 286.265625 C 374.109375 286.273438 373.980469 286.273438 373.910156 286.273438 C 373.910156 286.273438 373.890625 286.273438 373.84375 286.273438 L 373.734375 286.265625 L 373.519531 286.253906 L 373.074219 286.238281 L 372.203125 286.199219 L 370.4375 286.109375 L 366.933594 285.917969 C 364.613281 285.609375 362.304688 285.230469 360.011719 284.855469 C 357.746094 284.34375 355.515625 283.710938 353.269531 283.125 C 351.082031 282.394531 348.941406 281.542969 346.796875 280.75 C 338.347656 277.164062 330.796875 271.933594 324.589844 265.640625 C 318.375 259.351562 313.519531 251.992188 310.210938 244.214844 L 309.554688 242.761719 C 309.359375 242.273438 309.199219 241.773438 309.027344 241.28125 C 308.753906 240.484375 308.480469 239.699219 308.21875 238.929688 C 308.140625 238.71875 308.066406 238.511719 308 238.304688 C 307.71875 237.5625 307.488281 236.8125 307.285156 236.0625 C 307.019531 235.113281 306.804688 234.164062 306.578125 233.207031 C 306.8125 233.347656 307.066406 233.488281 307.3125 233.617188 C 310.515625 235.363281 313.976562 236.691406 317.589844 237.742188 C 320.148438 238.441406 322.769531 238.949219 325.429688 239.285156 C 325.832031 240.070312 326.265625 240.855469 326.722656 241.621094 C 327.167969 242.417969 327.648438 243.1875 328.148438 243.960938 C 330.460938 247.480469 333.179688 250.777344 336.292969 253.742188 C 341.179688 258.394531 347.003906 262.222656 353.425781 264.824219 C 355.054688 265.382812 356.679688 266.003906 358.335938 266.546875 C 360.03125 266.9375 361.71875 267.410156 363.417969 267.804688 C 365.15625 268.050781 366.902344 268.3125 368.644531 268.5625 L 371.296875 268.683594 L 372.625 268.75 L 373.289062 268.789062 L 373.628906 268.804688 L 373.792969 268.8125 L 373.855469 268.824219 C 375.804688 268.726562 377.75 268.628906 379.691406 268.53125 C 381.367188 268.28125 382.902344 268.007812 384.511719 267.804688 C 386.179688 267.417969 387.898438 266.9375 389.585938 266.546875 C 391.238281 266.003906 392.851562 265.371094 394.496094 264.824219 C 400.917969 262.222656 406.742188 258.394531 411.632812 253.742188 C 416.527344 249.074219 420.476562 243.585938 423.296875 237.6875 C 424.824219 234.515625 426.007812 231.210938 426.890625 227.875 C 428.875 227.808594 430.894531 227.789062 432.953125 227.832031 C 436.207031 227.898438 439.324219 228.136719 442.273438 228.519531 " fill-opacity="1" fill-rule="nonzero"/></g><path fill="#1677bc" d="M 325.429688 239.285156 C 322.769531 238.949219 320.148438 238.441406 317.589844 237.742188 C 313.976562 236.691406 310.515625 235.363281 307.3125 233.617188 C 307.066406 233.488281 306.8125 233.347656 306.578125 233.207031 C 306.511719 232.898438 306.441406 232.59375 306.367188 232.289062 C 306.140625 231.285156 305.902344 230.296875 305.695312 229.28125 C 305.554688 228.214844 305.414062 227.144531 305.269531 226.078125 C 305.148438 225.019531 305.019531 223.949219 304.886719 222.898438 L 304.800781 222.109375 L 304.777344 221.433594 L 304.757812 220.089844 C 304.734375 219.199219 304.714844 218.304688 304.691406 217.414062 L 304.671875 216.082031 L 304.660156 215.371094 L 304.679688 214.992188 L 304.726562 214.21875 C 304.734375 214.121094 304.734375 214.011719 304.746094 213.914062 C 307.109375 215.101562 309.632812 216.058594 312.292969 216.722656 C 314.53125 217.292969 316.882812 217.617188 319.3125 217.792969 C 319.355469 218.304688 319.398438 218.816406 319.441406 219.34375 L 319.550781 220.691406 L 319.589844 221.355469 L 319.710938 221.914062 C 319.855469 222.632812 319.996094 223.363281 320.148438 224.09375 L 320.542969 226.285156 C 320.734375 227.042969 320.988281 227.820312 321.207031 228.59375 C 321.660156 230.140625 322.03125 231.710938 322.707031 233.191406 C 323.003906 233.945312 323.304688 234.710938 323.597656 235.460938 C 323.75 235.839844 323.882812 236.222656 324.058594 236.59375 L 324.625 237.6875 C 324.886719 238.21875 325.144531 238.75 325.429688 239.285156 " fill-opacity="1" fill-rule="nonzero"/><g clip-path="url(#4835f4f2ba)"><path fill="#2aa8e2" d="M 473.175781 237.433594 C 473.175781 237.433594 472.621094 236.722656 471.585938 235.382812 C 470.585938 234.035156 468.996094 232.128906 466.949219 229.8125 C 464.859375 227.558594 462.238281 224.933594 459.035156 222.449219 C 455.789062 220.015625 451.996094 217.707031 447.617188 216.265625 C 446.214844 215.800781 444.761719 215.40625 443.261719 215.089844 C 440.625 214.535156 437.839844 214.21875 434.914062 214.21875 C 434.3125 214.21875 433.703125 214.242188 433.09375 214.261719 C 431.785156 214.261719 430.421875 214.4375 429.046875 214.535156 C 428.972656 214.546875 428.894531 214.554688 428.804688 214.570312 C 427.5 214.742188 426.191406 214.871094 424.832031 215.144531 C 421.980469 215.613281 419.007812 216.320312 415.960938 217.148438 C 403.75 220.453125 390.171875 226.285156 374.976562 231.5 C 367.371094 234.097656 359.683594 236.378906 351.945312 237.902344 C 345.941406 239.089844 339.859375 239.8125 333.863281 239.8125 C 332.167969 239.8125 330.46875 239.757812 328.777344 239.636719 C 327.660156 239.546875 326.539062 239.425781 325.429688 239.285156 C 322.769531 238.949219 320.148438 238.441406 317.589844 237.742188 C 313.976562 236.691406 310.515625 235.363281 307.3125 233.617188 C 307.066406 233.488281 306.8125 233.347656 306.578125 233.207031 C 300.492188 229.792969 295.515625 225.140625 291.757812 220.378906 C 287.863281 215.359375 285.175781 210.273438 283.238281 205.695312 C 282.703125 204.570312 282.292969 203.4375 281.886719 202.359375 C 281.496094 201.28125 281.09375 200.253906 280.757812 199.253906 C 280.132812 197.214844 279.527344 195.40625 279.089844 193.714844 C 278.675781 192.027344 278.304688 190.53125 277.980469 189.238281 C 277.707031 187.9375 277.511719 186.835938 277.335938 185.953125 C 277.011719 184.175781 276.835938 183.242188 276.835938 183.242188 C 276.835938 183.242188 277.308594 184.015625 278.207031 185.496094 C 278.644531 186.242188 279.199219 187.15625 279.839844 188.246094 C 280.515625 189.277344 281.289062 190.476562 282.160156 191.820312 C 283.019531 193.148438 284.074219 194.554688 285.152344 196.125 C 285.710938 196.886719 286.339844 197.636719 286.949219 198.449219 C 287.570312 199.253906 288.199219 200.09375 288.933594 200.878906 C 291.660156 204.167969 295.003906 207.527344 298.914062 210.394531 C 300.730469 211.710938 302.6875 212.898438 304.746094 213.914062 C 307.109375 215.101562 309.632812 216.058594 312.292969 216.722656 C 314.53125 217.292969 316.882812 217.617188 319.3125 217.792969 C 319.582031 217.828125 319.855469 217.835938 320.128906 217.859375 C 320.824219 217.890625 321.519531 217.914062 322.226562 217.914062 C 324.316406 217.914062 326.472656 217.769531 328.683594 217.550781 C 340.558594 216.253906 354.035156 211.417969 368.851562 206.347656 C 383.660156 201.292969 398.644531 196.558594 413.296875 195.285156 C 415.746094 195.085938 418.160156 194.957031 420.5625 194.957031 C 421.765625 194.957031 422.953125 194.988281 424.136719 195.058594 C 424.367188 195.066406 424.59375 195.078125 424.824219 195.085938 C 426.355469 195.171875 427.902344 195.363281 429.394531 195.515625 C 431.148438 195.796875 432.847656 196.027344 434.519531 196.449219 C 436.359375 196.839844 438.15625 197.367188 439.898438 197.964844 C 444.492188 199.558594 448.691406 201.792969 452.277344 204.398438 C 457.25 207.972656 460.972656 212.320312 463.757812 216.34375 C 466.515625 220.429688 468.359375 224.234375 469.726562 227.386719 C 471.03125 230.566406 471.902344 233.0625 472.394531 234.804688 C 472.902344 236.53125 473.175781 237.433594 473.175781 237.433594 " fill-opacity="1" fill-rule="nonzero"/></g><path fill="#025f8e" d="M 328.148438 243.960938 C 327.648438 243.1875 327.167969 242.417969 326.722656 241.621094 C 326.265625 240.855469 325.832031 240.070312 325.429688 239.285156 C 322.769531 238.949219 320.148438 238.441406 317.589844 237.742188 C 313.976562 236.691406 310.515625 235.363281 307.3125 233.617188 C 307.066406 233.488281 306.8125 233.347656 306.578125 233.207031 C 306.804688 234.164062 307.019531 235.113281 307.285156 236.0625 C 307.488281 236.8125 307.71875 237.5625 308 238.304688 C 308.066406 238.511719 308.140625 238.71875 308.21875 238.929688 C 308.402344 239.46875 309.179688 241.707031 309.367188 242.257812 C 313.976562 245.253906 321.957031 247.074219 329.746094 246.265625 C 329.433594 245.816406 328.449219 244.421875 328.148438 243.960938 " fill-opacity="1" fill-rule="nonzero"/><path fill="#025f8e" d="M 426.890625 227.875 C 426.3125 230.070312 425.585938 232.246094 424.730469 234.382812 C 429.300781 234.417969 434.90625 234.671875 440.753906 235.429688 C 441.378906 233.140625 441.890625 230.832031 442.273438 228.519531 C 439.324219 228.136719 436.207031 227.898438 432.953125 227.832031 C 430.894531 227.789062 428.875 227.808594 426.890625 227.875 " fill-opacity="1" fill-rule="nonzero"/></svg>