<svg xmlns="http://www.w3.org/2000/svg" xmlns:xlink="http://www.w3.org/1999/xlink" width="628" zoomAndPan="magnify" viewBox="0 0 470.87997 219" height="292" preserveAspectRatio="xMidYMid meet" version="1.0"><defs><g/><clipPath id="594fbc58ad"><path d="M 75.265625 83.894531 L 149.921875 83.894531 L 149.921875 135.300781 L 75.265625 135.300781 Z M 75.265625 83.894531 " clip-rule="nonzero"/></clipPath><clipPath id="151d61b2df"><path d="M 130.757812 83.894531 L 149.921875 83.894531 L 149.921875 103.101562 L 130.757812 103.101562 Z M 130.757812 83.894531 " clip-rule="nonzero"/></clipPath></defs><g clip-path="url(#594fbc58ad)"><path fill="#ffffff" d="M 143.3125 94.917969 L 143.742188 103.011719 L 149.925781 102.660156 L 148.929688 83.894531 L 145.960938 83.941406 L 130.921875 84.164062 L 130.992188 90.570312 L 138.855469 90.453125 L 113.535156 116.863281 L 101.054688 103.847656 L 98.855469 106.144531 L 75.265625 130.746094 L 79.632812 135.300781 L 101.054688 112.957031 L 113.535156 125.972656 L 115.734375 123.679688 L 143.3125 94.917969 " fill-opacity="1" fill-rule="evenodd"/></g><g clip-path="url(#151d61b2df)"><path fill="#ffffff" d="M 143.742188 103.011719 L 149.925781 102.660156 L 148.929688 83.894531 L 145.960938 83.941406 L 130.921875 84.164062 L 130.992188 90.570312 L 143.335938 90.417969 L 143.742188 103.011719 " fill-opacity="1" fill-rule="evenodd"/></g><g fill="#ffffff" fill-opacity="1"><g transform="translate(153.374306, 127.870322)"><g><path d="M 18.015625 -28.875 C 18.296875 -28.875 18.4375 -28.710938 18.4375 -28.390625 C 18.4375 -28.285156 18.390625 -28.1875 18.296875 -28.09375 C 16.722656 -26.507812 14.90625 -25.71875 12.84375 -25.71875 C 12.363281 -25.71875 11.820312 -25.992188 11.21875 -26.546875 C 10.613281 -27.109375 10.3125 -27.910156 10.3125 -28.953125 C 10.3125 -30.003906 10.945312 -31.171875 12.21875 -32.453125 C 13.5 -33.742188 15.273438 -34.960938 17.546875 -36.109375 C 19.828125 -37.265625 22.671875 -38.289062 26.078125 -39.1875 C 29.492188 -40.09375 32.5625 -40.546875 35.28125 -40.546875 C 38 -40.546875 40.226562 -40.320312 41.96875 -39.875 C 43.71875 -39.4375 45.082031 -38.894531 46.0625 -38.25 C 47.050781 -37.601562 47.863281 -36.878906 48.5 -36.078125 C 49.5625 -34.722656 50.09375 -33.347656 50.09375 -31.953125 C 50.09375 -30.554688 49.644531 -29.117188 48.75 -27.640625 C 47.851562 -26.160156 46.6875 -24.84375 45.25 -23.6875 C 43.8125 -22.53125 42.164062 -21.457031 40.3125 -20.46875 C 36.84375 -18.632812 33.132812 -17.285156 29.1875 -16.421875 C 29.851562 -15.722656 31.28125 -13.984375 33.46875 -11.203125 C 35.65625 -8.421875 37.648438 -6.09375 39.453125 -4.21875 C 41.265625 -2.34375 42.664062 -1.40625 43.65625 -1.40625 L 44.59375 -1.75 C 44.800781 -1.75 44.90625 -1.664062 44.90625 -1.5 C 44.90625 -1.34375 44.5625 -0.882812 43.875 -0.125 C 43.1875 0.632812 42.585938 1.207031 42.078125 1.59375 C 41.578125 1.988281 40.890625 2.1875 40.015625 2.1875 C 39.148438 2.1875 38.160156 1.765625 37.046875 0.921875 C 35.941406 0.078125 34.734375 -1.109375 33.421875 -2.640625 C 32.109375 -4.179688 30.925781 -5.628906 29.875 -6.984375 C 28.832031 -8.347656 27.632812 -9.953125 26.28125 -11.796875 C 24.9375 -13.640625 24.007812 -14.890625 23.5 -15.546875 C 23.3125 -15.242188 22.832031 -14.5 22.0625 -13.3125 C 21.300781 -12.125 20.738281 -11.25 20.375 -10.6875 C 20.019531 -10.125 19.503906 -9.300781 18.828125 -8.21875 C 18.160156 -7.144531 17.640625 -6.28125 17.265625 -5.625 C 16.234375 -3.882812 15.515625 -2.582031 15.109375 -1.71875 C 14.703125 -0.851562 14.039062 -0.421875 13.125 -0.421875 L 12.140625 -0.453125 L 11.296875 -0.421875 C 10.140625 -0.421875 9.5625 -0.910156 9.5625 -1.890625 C 9.5625 -2.617188 9.875 -3.660156 10.5 -5.015625 C 11.125 -6.378906 14.453125 -11.453125 20.484375 -20.234375 C 26.523438 -29.015625 29.851562 -33.695312 30.46875 -34.28125 C 31.09375 -34.875 31.554688 -35.207031 31.859375 -35.28125 C 32.078125 -35.445312 32.222656 -35.53125 32.296875 -35.53125 L 32.8125 -35.453125 L 33.28125 -35.53125 C 33.457031 -35.53125 33.609375 -35.457031 33.734375 -35.3125 C 33.867188 -35.175781 33.960938 -35.09375 34.015625 -35.0625 C 34.804688 -34.476562 35.203125 -33.988281 35.203125 -33.59375 C 35.203125 -33.195312 35.101562 -32.816406 34.90625 -32.453125 C 34.707031 -32.085938 34.164062 -31.269531 33.28125 -30 C 32.40625 -28.726562 31.25 -27.070312 29.8125 -25.03125 C 28.382812 -23 27.347656 -21.523438 26.703125 -20.609375 C 28.242188 -20.679688 30.09375 -21.148438 32.25 -22.015625 C 34.40625 -22.878906 36.421875 -23.914062 38.296875 -25.125 C 40.179688 -26.332031 41.796875 -27.640625 43.140625 -29.046875 C 44.484375 -30.460938 45.15625 -31.695312 45.15625 -32.75 C 45.15625 -33.3125 44.863281 -33.820312 44.28125 -34.28125 C 43.695312 -34.738281 42.96875 -35.101562 42.09375 -35.375 C 40.320312 -35.894531 38.332031 -36.15625 36.125 -36.15625 C 33.914062 -36.15625 31.113281 -35.675781 27.71875 -34.71875 C 24.320312 -33.757812 21.847656 -32.84375 20.296875 -31.96875 C 18.742188 -31.101562 17.617188 -30.363281 16.921875 -29.75 C 16.234375 -29.144531 15.890625 -28.722656 15.890625 -28.484375 C 15.890625 -28.347656 16.078125 -28.28125 16.453125 -28.28125 C 16.835938 -28.28125 17.179688 -28.378906 17.484375 -28.578125 C 17.785156 -28.773438 17.960938 -28.875 18.015625 -28.875 Z M 18.015625 -28.875 "/></g></g></g><g fill="#ffffff" fill-opacity="1"><g transform="translate(195.596978, 127.870322)"><g><path d="M 39.28125 -39.4375 C 39.851562 -40.738281 40.265625 -41.390625 40.515625 -41.390625 L 40.65625 -41.390625 C 40.9375 -41.390625 41.503906 -41.085938 42.359375 -40.484375 C 43.222656 -39.878906 43.65625 -39.316406 43.65625 -38.796875 C 43.65625 -38.066406 41.253906 -32.40625 36.453125 -21.8125 C 31.660156 -11.226562 28.910156 -5.289062 28.203125 -4 C 27.503906 -2.71875 27.023438 -1.859375 26.765625 -1.421875 C 26.503906 -0.992188 26.148438 -0.519531 25.703125 0 C 24.890625 0.988281 23.882812 1.484375 22.6875 1.484375 C 22.195312 1.484375 21.765625 1.546875 21.390625 1.671875 C 21.015625 1.796875 20.789062 1.859375 20.71875 1.859375 C 20.125 1.859375 19.828125 1.71875 19.828125 1.4375 C 19.828125 1.375 19.90625 1.140625 20.0625 0.734375 C 20.21875 0.335938 22.359375 -4.207031 26.484375 -12.90625 C 22.078125 -13.070312 18.207031 -13.203125 14.875 -13.296875 C 11.664062 -9.265625 8.757812 -5.046875 6.15625 -0.640625 C 5.832031 -0.0234375 5.53125 0.40625 5.25 0.65625 C 4.96875 0.914062 4.582031 1.046875 4.09375 1.046875 C 3.613281 1.046875 3.09375 0.796875 2.53125 0.296875 C 1.96875 -0.203125 1.6875 -0.78125 1.6875 -1.4375 C 1.6875 -3.3125 4.101562 -7.320312 8.9375 -13.46875 C 6.664062 -13.46875 5.226562 -13.410156 4.625 -13.296875 C 4.019531 -13.179688 3.628906 -13.125 3.453125 -13.125 C 2.953125 -13.125 2.703125 -13.550781 2.703125 -14.40625 C 2.703125 -15.257812 3.203125 -16.007812 4.203125 -16.65625 C 5.203125 -17.300781 6.546875 -17.625 8.234375 -17.625 C 8.367188 -17.625 8.601562 -17.632812 8.9375 -17.65625 C 10.101562 -17.707031 11.296875 -17.753906 12.515625 -17.796875 C 16.597656 -22.597656 20.867188 -27.050781 25.328125 -31.15625 C 29.785156 -35.257812 33.648438 -38.132812 36.921875 -39.78125 C 37.441406 -40.039062 37.851562 -40.164062 38.15625 -40.15625 C 38.46875 -40.144531 38.84375 -39.90625 39.28125 -39.4375 Z M 37.3125 -35.484375 C 30.46875 -30.285156 24.21875 -24.390625 18.5625 -17.796875 C 21.875 -17.722656 25.226562 -17.582031 28.625 -17.375 C 32.03125 -24.550781 34.925781 -30.585938 37.3125 -35.484375 Z M 37.3125 -35.484375 "/></g></g></g><g fill="#ffffff" fill-opacity="1"><g transform="translate(229.414471, 127.870322)"><g><path d="M 48.1875 -40.703125 L 49.203125 -40.421875 C 51.578125 -40.066406 52.765625 -39.359375 52.765625 -38.296875 C 52.765625 -37.992188 52.65625 -37.738281 52.4375 -37.53125 C 49.90625 -35.257812 46.539062 -32.8125 42.34375 -30.1875 C 35.925781 -26.195312 28.65625 -22.335938 20.53125 -18.609375 C 23.1875 -17.085938 26.789062 -14.566406 31.34375 -11.046875 C 37.457031 -6.523438 41.21875 -4.265625 42.625 -4.265625 C 43.113281 -4.265625 43.53125 -4.398438 43.875 -4.671875 C 44.21875 -4.953125 44.410156 -5.09375 44.453125 -5.09375 C 44.765625 -5.09375 44.921875 -4.941406 44.921875 -4.640625 C 44.921875 -4.378906 44.609375 -3.628906 43.984375 -2.390625 C 43.359375 -1.148438 42.820312 -0.335938 42.375 0.046875 C 41.9375 0.441406 41.238281 0.640625 40.28125 0.640625 C 39.332031 0.640625 38.0625 0.171875 36.46875 -0.765625 C 34.875 -1.703125 33.132812 -2.875 31.25 -4.28125 C 29.363281 -5.695312 27.484375 -7.140625 25.609375 -8.609375 C 20.867188 -12.253906 17.675781 -14.414062 16.03125 -15.09375 C 10.25 -5.988281 7.28125 -1.273438 7.125 -0.953125 C 6.96875 -0.640625 6.757812 -0.382812 6.5 -0.1875 C 6.25 0.0078125 6.085938 0.109375 6.015625 0.109375 L 4.8125 0.28125 L 3.828125 0.21875 C 3.566406 0.21875 3.378906 0.257812 3.265625 0.34375 C 3.148438 0.4375 3.023438 0.5 2.890625 0.53125 C 2.765625 0.570312 2.65625 0.632812 2.5625 0.71875 C 2.46875 0.800781 2.320312 0.84375 2.125 0.84375 C 1.925781 0.84375 1.648438 0.6875 1.296875 0.375 C 0.953125 0.0703125 0.78125 -0.191406 0.78125 -0.421875 C 0.78125 -0.648438 0.914062 -1.046875 1.1875 -1.609375 C 1.46875 -2.171875 4.925781 -7.390625 11.5625 -17.265625 L 11.015625 -17.265625 C 9.765625 -17.265625 9.140625 -17.601562 9.140625 -18.28125 C 9.140625 -18.96875 9.453125 -19.648438 10.078125 -20.328125 C 10.703125 -21.015625 11.332031 -21.359375 11.96875 -21.359375 C 12.613281 -21.359375 13.316406 -21.304688 14.078125 -21.203125 C 17.628906 -26.429688 20.359375 -30.535156 22.265625 -33.515625 C 20.085938 -31.472656 18.023438 -30.453125 16.078125 -30.453125 C 15.140625 -30.453125 14.398438 -30.773438 13.859375 -31.421875 C 13.316406 -32.066406 13.046875 -32.800781 13.046875 -33.625 C 13.046875 -34.445312 13.253906 -35.117188 13.671875 -35.640625 C 14.097656 -36.171875 14.503906 -36.535156 14.890625 -36.734375 C 15.285156 -36.941406 15.554688 -37.046875 15.703125 -37.046875 C 15.859375 -37.046875 15.9375 -36.972656 15.9375 -36.828125 L 15.71875 -36.15625 C 15.71875 -35.894531 16.117188 -35.765625 16.921875 -35.765625 C 17.734375 -35.765625 18.859375 -36.207031 20.296875 -37.09375 C 21.742188 -37.988281 23.160156 -38.878906 24.546875 -39.765625 C 25.929688 -40.660156 26.96875 -41.109375 27.65625 -41.109375 C 28.351562 -41.109375 28.804688 -41.023438 29.015625 -40.859375 C 29.234375 -40.703125 29.429688 -40.597656 29.609375 -40.546875 C 29.796875 -40.503906 29.941406 -40.4375 30.046875 -40.34375 C 30.160156 -40.25 30.253906 -40.128906 30.328125 -39.984375 C 30.410156 -39.847656 30.550781 -39.695312 30.75 -39.53125 C 30.957031 -39.363281 31.0625 -39.140625 31.0625 -38.859375 C 31.0625 -38.578125 30.988281 -38.3125 30.84375 -38.0625 C 28.457031 -34.46875 25.53125 -29.929688 22.0625 -24.453125 C 26.71875 -26.878906 32.035156 -29.976562 38.015625 -33.75 C 43.992188 -37.53125 47.222656 -39.753906 47.703125 -40.421875 C 47.816406 -40.609375 47.976562 -40.703125 48.1875 -40.703125 Z M 48.1875 -40.703125 "/></g></g></g><g fill="#ffffff" fill-opacity="1"><g transform="translate(270.68137, 127.870322)"><g><path d="M 44.34375 -15.546875 C 44.84375 -15.546875 45.09375 -14.878906 45.09375 -13.546875 C 45.09375 -12.222656 45.007812 -11.332031 44.84375 -10.875 C 44.28125 -9.4375 42.972656 -7.820312 40.921875 -6.03125 C 38.867188 -4.238281 36.617188 -2.71875 34.171875 -1.46875 C 31.722656 -0.226562 29.710938 0.390625 28.140625 0.390625 C 27.390625 0.390625 26.753906 0.101562 26.234375 -0.46875 C 25.722656 -1.050781 25.46875 -1.8125 25.46875 -2.75 C 25.46875 -4.414062 26.421875 -6.960938 28.328125 -10.390625 C 30.242188 -13.828125 32.5625 -17.410156 35.28125 -21.140625 C 30.769531 -15.890625 27.570312 -12.347656 25.6875 -10.515625 C 23.800781 -8.679688 22.117188 -7.113281 20.640625 -5.8125 C 19.160156 -4.507812 17.828125 -3.460938 16.640625 -2.671875 C 13.828125 -0.816406 11.597656 0.109375 9.953125 0.109375 C 8.304688 0.109375 7.132812 -0.34375 6.4375 -1.25 C 5.738281 -2.15625 5.390625 -3.160156 5.390625 -4.265625 C 5.390625 -7.515625 7.285156 -12.078125 11.078125 -17.953125 C 14.878906 -23.828125 18.375 -28.628906 21.5625 -32.359375 C 18.863281 -29.984375 17.003906 -28.796875 15.984375 -28.796875 C 14.960938 -28.796875 14.195312 -29.109375 13.6875 -29.734375 C 13.1875 -30.359375 12.9375 -31.066406 12.9375 -31.859375 C 12.9375 -32.660156 13.3125 -33.410156 14.0625 -34.109375 C 14.8125 -34.816406 15.359375 -35.171875 15.703125 -35.171875 C 16.046875 -35.171875 16.21875 -35.140625 16.21875 -35.078125 C 16.21875 -35.023438 16.078125 -34.828125 15.796875 -34.484375 C 15.515625 -34.140625 15.375 -33.898438 15.375 -33.765625 C 15.375 -33.628906 15.5 -33.5625 15.75 -33.5625 C 16.476562 -33.5625 18.066406 -34.300781 20.515625 -35.78125 C 22.972656 -37.269531 25.078125 -38.71875 26.828125 -40.125 C 27.296875 -40.507812 27.832031 -40.703125 28.4375 -40.703125 C 29.039062 -40.703125 29.625 -40.554688 30.1875 -40.265625 C 30.226562 -40.359375 30.390625 -40.335938 30.671875 -40.203125 C 30.953125 -40.066406 31.234375 -39.859375 31.515625 -39.578125 C 31.796875 -39.296875 31.9375 -39.035156 31.9375 -38.796875 C 31.9375 -38.554688 31.863281 -38.332031 31.71875 -38.125 C 23.914062 -28.039062 19.015625 -21.472656 17.015625 -18.421875 C 12.941406 -12.210938 10.90625 -8.179688 10.90625 -6.328125 C 10.90625 -5.671875 11.179688 -5.34375 11.734375 -5.34375 C 12.285156 -5.34375 13.847656 -6.390625 16.421875 -8.484375 C 23.460938 -14.222656 33.335938 -24.347656 46.046875 -38.859375 C 46.554688 -39.429688 47.035156 -39.703125 47.484375 -39.671875 L 47.734375 -39.671875 C 47.804688 -39.671875 48.015625 -39.703125 48.359375 -39.765625 C 48.710938 -39.828125 49.285156 -39.859375 50.078125 -39.859375 C 51.953125 -39.859375 52.890625 -39.515625 52.890625 -38.828125 C 52.890625 -38.523438 52.609375 -38 52.046875 -37.25 C 51.492188 -36.5 50.347656 -34.882812 48.609375 -32.40625 C 46.867188 -29.9375 44.695312 -26.800781 42.09375 -23 C 39.5 -19.195312 37.257812 -15.703125 35.375 -12.515625 C 33.5 -9.328125 32.5625 -7.300781 32.5625 -6.4375 C 32.5625 -6.414062 32.59375 -6.40625 32.65625 -6.40625 C 32.71875 -6.40625 33.015625 -6.535156 33.546875 -6.796875 C 35.148438 -7.640625 37.035156 -8.976562 39.203125 -10.8125 C 41.367188 -12.65625 42.738281 -13.90625 43.3125 -14.5625 C 43.882812 -15.21875 44.226562 -15.546875 44.34375 -15.546875 Z M 44.34375 -15.546875 "/></g></g></g><g fill="#ffffff" fill-opacity="1"><g transform="translate(313.297596, 127.870322)"><g><path d="M 17.34375 -30.171875 C 16.726562 -29.710938 16.421875 -29.207031 16.421875 -28.65625 C 16.421875 -28.101562 16.832031 -27.828125 17.65625 -27.828125 C 18.007812 -27.828125 18.46875 -27.929688 19.03125 -28.140625 L 19.0625 -28.140625 C 19.15625 -28.140625 19.203125 -27.945312 19.203125 -27.5625 C 19.203125 -27.175781 19.164062 -26.945312 19.09375 -26.875 C 17.15625 -25.507812 15.519531 -24.828125 14.1875 -24.828125 C 12.863281 -24.828125 11.898438 -25.203125 11.296875 -25.953125 C 10.703125 -26.703125 10.40625 -27.679688 10.40625 -28.890625 C 10.40625 -30.097656 11.066406 -31.378906 12.390625 -32.734375 C 13.722656 -34.097656 15.515625 -35.351562 17.765625 -36.5 C 20.015625 -37.65625 22.800781 -38.609375 26.125 -39.359375 C 29.457031 -40.109375 33.195312 -40.484375 37.34375 -40.484375 C 41.5 -40.484375 44.972656 -39.671875 47.765625 -38.046875 C 50.554688 -36.429688 51.953125 -34.585938 51.953125 -32.515625 C 51.953125 -30.441406 51.222656 -28.335938 49.765625 -26.203125 C 48.316406 -24.066406 46.5 -22.207031 44.3125 -20.625 C 42.132812 -19.039062 39.710938 -17.738281 37.046875 -16.71875 C 34.390625 -15.707031 32.007812 -15.203125 29.90625 -15.203125 C 27.8125 -15.203125 26.179688 -16.046875 25.015625 -17.734375 C 22.171875 -13.253906 20.242188 -10.191406 19.234375 -8.546875 C 18.222656 -6.910156 17.363281 -5.535156 16.65625 -4.421875 C 15.957031 -3.304688 15.414062 -2.429688 15.03125 -1.796875 C 14.644531 -1.160156 14.441406 -0.832031 14.421875 -0.8125 C 14.023438 -0.382812 13.601562 -0.171875 13.15625 -0.171875 L 11.78125 0.078125 L 11.109375 0.03125 L 10.625 0.03125 C 9.519531 0.03125 8.96875 -0.316406 8.96875 -1.015625 C 8.96875 -1.890625 10.8125 -5.203125 14.5 -10.953125 C 18.195312 -16.710938 21.679688 -21.9375 24.953125 -26.625 C 28.222656 -31.3125 30.128906 -33.941406 30.671875 -34.515625 C 31.210938 -35.097656 31.691406 -35.441406 32.109375 -35.546875 C 32.535156 -35.648438 33.21875 -35.703125 34.15625 -35.703125 L 35.5625 -35.703125 C 35.8125 -35.703125 35.9375 -35.507812 35.9375 -35.125 C 35.9375 -34.738281 35.890625 -34.472656 35.796875 -34.328125 C 34.140625 -32.023438 31.15625 -27.46875 26.84375 -20.65625 C 27 -20.363281 27.25 -20.175781 27.59375 -20.09375 C 27.9375 -20.019531 28.304688 -19.984375 28.703125 -19.984375 L 29.515625 -19.984375 C 31.242188 -19.984375 33.109375 -20.398438 35.109375 -21.234375 C 37.117188 -22.066406 38.878906 -23.066406 40.390625 -24.234375 C 41.910156 -25.398438 43.179688 -26.613281 44.203125 -27.875 C 45.222656 -29.132812 45.734375 -30.210938 45.734375 -31.109375 C 45.734375 -32.015625 45.453125 -32.820312 44.890625 -33.53125 C 44.335938 -34.25 43.570312 -34.816406 42.59375 -35.234375 C 40.675781 -36.035156 38.351562 -36.4375 35.625 -36.4375 C 32.90625 -36.4375 29.617188 -35.726562 25.765625 -34.3125 C 21.910156 -32.894531 19.101562 -31.515625 17.34375 -30.171875 Z M 17.34375 -30.171875 "/></g></g></g></svg>