<svg xmlns="http://www.w3.org/2000/svg" xmlns:xlink="http://www.w3.org/1999/xlink" width="500" zoomAndPan="magnify" viewBox="0 0 375 74.999997" height="100" preserveAspectRatio="xMidYMid meet" version="1.0"><defs><g/><clipPath id="03a252ad72"><path d="M 7.507812 12.003906 L 82.183594 12.003906 L 82.183594 63.425781 L 7.507812 63.425781 Z M 7.507812 12.003906 " clip-rule="nonzero"/></clipPath><clipPath id="9e19dea45c"><path d="M 63.015625 12.003906 L 82.183594 12.003906 L 82.183594 31.214844 L 63.015625 31.214844 Z M 63.015625 12.003906 " clip-rule="nonzero"/></clipPath></defs><g clip-path="url(#03a252ad72)"><path fill="#ffffff" d="M 75.570312 23.027344 L 76 31.128906 L 82.1875 30.773438 L 81.191406 12.003906 L 78.21875 12.050781 L 63.175781 12.273438 L 63.25 18.679688 L 71.117188 18.5625 L 45.785156 44.980469 L 33.304688 31.960938 L 31.101562 34.257812 L 7.507812 58.867188 L 11.875 63.425781 L 33.304688 41.074219 L 45.785156 54.09375 L 47.988281 51.800781 L 75.570312 23.027344 " fill-opacity="1" fill-rule="evenodd"/></g><g clip-path="url(#9e19dea45c)"><path fill="#ffffff" d="M 76 31.128906 L 82.1875 30.773438 L 81.191406 12.003906 L 78.21875 12.050781 L 63.175781 12.273438 L 63.25 18.679688 L 75.597656 18.53125 L 76 31.128906 " fill-opacity="1" fill-rule="evenodd"/></g><g fill="#ffffff" fill-opacity="1"><g transform="translate(85.637205, 55.99109)"><g><path d="M 18.03125 -28.875 C 18.3125 -28.875 18.453125 -28.71875 18.453125 -28.40625 C 18.453125 -28.289062 18.40625 -28.1875 18.3125 -28.09375 C 16.726562 -26.519531 14.910156 -25.734375 12.859375 -25.734375 C 12.367188 -25.734375 11.820312 -26.007812 11.21875 -26.5625 C 10.625 -27.113281 10.328125 -27.914062 10.328125 -28.96875 C 10.328125 -30.019531 10.960938 -31.1875 12.234375 -32.46875 C 13.503906 -33.75 15.28125 -34.96875 17.5625 -36.125 C 19.84375 -37.28125 22.6875 -38.304688 26.09375 -39.203125 C 29.507812 -40.097656 32.578125 -40.546875 35.296875 -40.546875 C 38.015625 -40.546875 40.242188 -40.328125 41.984375 -39.890625 C 43.722656 -39.453125 45.082031 -38.910156 46.0625 -38.265625 C 47.050781 -37.617188 47.867188 -36.890625 48.515625 -36.078125 C 49.578125 -34.734375 50.109375 -33.359375 50.109375 -31.953125 C 50.109375 -30.554688 49.65625 -29.117188 48.75 -27.640625 C 47.851562 -26.160156 46.6875 -24.84375 45.25 -23.6875 C 43.820312 -22.539062 42.179688 -21.46875 40.328125 -20.46875 C 36.859375 -18.632812 33.144531 -17.285156 29.1875 -16.421875 C 29.863281 -15.722656 31.289062 -13.984375 33.46875 -11.203125 C 35.65625 -8.421875 37.65625 -6.09375 39.46875 -4.21875 C 41.28125 -2.34375 42.679688 -1.40625 43.671875 -1.40625 L 44.59375 -1.75 C 44.800781 -1.75 44.90625 -1.664062 44.90625 -1.5 C 44.90625 -1.34375 44.5625 -0.882812 43.875 -0.125 C 43.195312 0.632812 42.601562 1.207031 42.09375 1.59375 C 41.59375 1.988281 40.90625 2.1875 40.03125 2.1875 C 39.15625 2.1875 38.164062 1.765625 37.0625 0.921875 C 35.957031 0.078125 34.75 -1.109375 33.4375 -2.640625 C 32.125 -4.179688 30.941406 -5.628906 29.890625 -6.984375 C 28.835938 -8.347656 27.632812 -9.953125 26.28125 -11.796875 C 24.9375 -13.640625 24.015625 -14.890625 23.515625 -15.546875 C 23.328125 -15.242188 22.847656 -14.5 22.078125 -13.3125 C 21.304688 -12.125 20.742188 -11.25 20.390625 -10.6875 C 20.035156 -10.125 19.519531 -9.300781 18.84375 -8.21875 C 18.164062 -7.144531 17.640625 -6.28125 17.265625 -5.625 C 16.234375 -3.882812 15.515625 -2.582031 15.109375 -1.71875 C 14.710938 -0.851562 14.054688 -0.421875 13.140625 -0.421875 L 12.15625 -0.453125 L 11.3125 -0.421875 C 10.144531 -0.421875 9.5625 -0.910156 9.5625 -1.890625 C 9.5625 -2.617188 9.875 -3.660156 10.5 -5.015625 C 11.132812 -6.378906 14.46875 -11.453125 20.5 -20.234375 C 26.539062 -29.015625 29.867188 -33.703125 30.484375 -34.296875 C 31.097656 -34.890625 31.554688 -35.222656 31.859375 -35.296875 C 32.085938 -35.460938 32.238281 -35.546875 32.3125 -35.546875 L 32.8125 -35.46875 L 33.296875 -35.546875 C 33.460938 -35.546875 33.609375 -35.472656 33.734375 -35.328125 C 33.867188 -35.191406 33.96875 -35.101562 34.03125 -35.0625 C 34.8125 -34.488281 35.203125 -34.003906 35.203125 -33.609375 C 35.203125 -33.210938 35.101562 -32.832031 34.90625 -32.46875 C 34.71875 -32.101562 34.179688 -31.28125 33.296875 -30 C 32.410156 -28.726562 31.25 -27.070312 29.8125 -25.03125 C 28.382812 -23 27.351562 -21.523438 26.71875 -20.609375 C 28.25 -20.679688 30.09375 -21.148438 32.25 -22.015625 C 34.40625 -22.878906 36.425781 -23.914062 38.3125 -25.125 C 40.195312 -26.332031 41.804688 -27.644531 43.140625 -29.0625 C 44.484375 -30.476562 45.15625 -31.710938 45.15625 -32.765625 C 45.15625 -33.328125 44.863281 -33.835938 44.28125 -34.296875 C 43.707031 -34.753906 42.976562 -35.113281 42.09375 -35.375 C 40.332031 -35.90625 38.34375 -36.171875 36.125 -36.171875 C 33.914062 -36.171875 31.113281 -35.691406 27.71875 -34.734375 C 24.332031 -33.773438 21.859375 -32.859375 20.296875 -31.984375 C 18.742188 -31.117188 17.617188 -30.378906 16.921875 -29.765625 C 16.234375 -29.160156 15.890625 -28.734375 15.890625 -28.484375 C 15.890625 -28.359375 16.082031 -28.296875 16.46875 -28.296875 C 16.851562 -28.296875 17.191406 -28.390625 17.484375 -28.578125 C 17.785156 -28.773438 17.96875 -28.875 18.03125 -28.875 Z M 18.03125 -28.875 "/></g></g></g><g fill="#ffffff" fill-opacity="1"><g transform="translate(127.870638, 55.99109)"><g><path d="M 39.28125 -39.453125 C 39.863281 -40.742188 40.28125 -41.390625 40.53125 -41.390625 L 40.671875 -41.390625 C 40.953125 -41.390625 41.519531 -41.085938 42.375 -40.484375 C 43.238281 -39.890625 43.671875 -39.332031 43.671875 -38.8125 C 43.671875 -38.082031 41.269531 -32.421875 36.46875 -21.828125 C 31.675781 -11.234375 28.925781 -5.289062 28.21875 -4 C 27.519531 -2.71875 27.035156 -1.859375 26.765625 -1.421875 C 26.503906 -0.992188 26.148438 -0.519531 25.703125 0 C 24.898438 0.988281 23.894531 1.484375 22.6875 1.484375 C 22.207031 1.484375 21.78125 1.546875 21.40625 1.671875 C 21.03125 1.796875 20.800781 1.859375 20.71875 1.859375 C 20.125 1.859375 19.828125 1.71875 19.828125 1.4375 C 19.828125 1.375 19.90625 1.140625 20.0625 0.734375 C 20.21875 0.335938 22.359375 -4.207031 26.484375 -12.90625 C 22.078125 -13.070312 18.207031 -13.203125 14.875 -13.296875 C 11.664062 -9.265625 8.757812 -5.046875 6.15625 -0.640625 C 5.84375 -0.0234375 5.546875 0.40625 5.265625 0.65625 C 4.984375 0.914062 4.597656 1.046875 4.109375 1.046875 C 3.617188 1.046875 3.09375 0.796875 2.53125 0.296875 C 1.96875 -0.203125 1.6875 -0.78125 1.6875 -1.4375 C 1.6875 -3.3125 4.101562 -7.320312 8.9375 -13.46875 C 6.675781 -13.46875 5.238281 -13.410156 4.625 -13.296875 C 4.019531 -13.191406 3.628906 -13.140625 3.453125 -13.140625 C 2.953125 -13.140625 2.703125 -13.5625 2.703125 -14.40625 C 2.703125 -15.257812 3.203125 -16.007812 4.203125 -16.65625 C 5.203125 -17.300781 6.546875 -17.625 8.234375 -17.625 C 8.367188 -17.625 8.601562 -17.632812 8.9375 -17.65625 C 10.101562 -17.71875 11.296875 -17.765625 12.515625 -17.796875 C 16.597656 -22.597656 20.867188 -27.050781 25.328125 -31.15625 C 29.796875 -35.257812 33.660156 -38.140625 36.921875 -39.796875 C 37.453125 -40.054688 37.867188 -40.179688 38.171875 -40.171875 C 38.484375 -40.160156 38.851562 -39.921875 39.28125 -39.453125 Z M 37.3125 -35.484375 C 30.46875 -30.296875 24.21875 -24.398438 18.5625 -17.796875 C 21.875 -17.722656 25.226562 -17.582031 28.625 -17.375 C 32.039062 -24.5625 34.9375 -30.597656 37.3125 -35.484375 Z M 37.3125 -35.484375 "/></g></g></g><g fill="#ffffff" fill-opacity="1"><g transform="translate(161.69675, 55.99109)"><g><path d="M 48.203125 -40.71875 L 49.21875 -40.4375 C 51.59375 -40.082031 52.78125 -39.367188 52.78125 -38.296875 C 52.78125 -38.003906 52.671875 -37.753906 52.453125 -37.546875 C 49.921875 -35.273438 46.554688 -32.828125 42.359375 -30.203125 C 35.941406 -26.210938 28.664062 -22.347656 20.53125 -18.609375 C 23.1875 -17.097656 26.796875 -14.578125 31.359375 -11.046875 C 37.472656 -6.535156 41.234375 -4.28125 42.640625 -4.28125 C 43.117188 -4.28125 43.53125 -4.414062 43.875 -4.6875 C 44.226562 -4.957031 44.421875 -5.09375 44.453125 -5.09375 C 44.773438 -5.09375 44.9375 -4.941406 44.9375 -4.640625 C 44.9375 -4.378906 44.625 -3.628906 44 -2.390625 C 43.375 -1.148438 42.835938 -0.335938 42.390625 0.046875 C 41.953125 0.441406 41.253906 0.640625 40.296875 0.640625 C 39.335938 0.640625 38.0625 0.171875 36.46875 -0.765625 C 34.875 -1.703125 33.132812 -2.875 31.25 -4.28125 C 29.375 -5.695312 27.5 -7.140625 25.625 -8.609375 C 20.875 -12.265625 17.675781 -14.425781 16.03125 -15.09375 C 10.257812 -5.988281 7.289062 -1.273438 7.125 -0.953125 C 6.96875 -0.640625 6.757812 -0.382812 6.5 -0.1875 C 6.25 0.0078125 6.085938 0.109375 6.015625 0.109375 L 4.8125 0.28125 L 3.828125 0.21875 C 3.566406 0.21875 3.378906 0.257812 3.265625 0.34375 C 3.148438 0.4375 3.023438 0.5 2.890625 0.53125 C 2.765625 0.570312 2.65625 0.632812 2.5625 0.71875 C 2.46875 0.800781 2.320312 0.84375 2.125 0.84375 C 1.925781 0.84375 1.648438 0.6875 1.296875 0.375 C 0.953125 0.0703125 0.78125 -0.191406 0.78125 -0.421875 C 0.78125 -0.648438 0.914062 -1.046875 1.1875 -1.609375 C 1.46875 -2.171875 4.925781 -7.390625 11.5625 -17.265625 L 11.03125 -17.265625 C 9.769531 -17.265625 9.140625 -17.601562 9.140625 -18.28125 C 9.140625 -18.96875 9.453125 -19.65625 10.078125 -20.34375 C 10.710938 -21.03125 11.347656 -21.375 11.984375 -21.375 C 12.617188 -21.375 13.320312 -21.316406 14.09375 -21.203125 C 17.632812 -26.429688 20.359375 -30.535156 22.265625 -33.515625 C 20.097656 -31.472656 18.035156 -30.453125 16.078125 -30.453125 C 15.140625 -30.453125 14.398438 -30.773438 13.859375 -31.421875 C 13.316406 -32.066406 13.046875 -32.800781 13.046875 -33.625 C 13.046875 -34.457031 13.253906 -35.132812 13.671875 -35.65625 C 14.097656 -36.1875 14.507812 -36.550781 14.90625 -36.75 C 15.300781 -36.957031 15.570312 -37.0625 15.71875 -37.0625 C 15.863281 -37.0625 15.9375 -36.988281 15.9375 -36.84375 L 15.71875 -36.171875 C 15.71875 -35.898438 16.117188 -35.765625 16.921875 -35.765625 C 17.734375 -35.765625 18.859375 -36.207031 20.296875 -37.09375 C 21.742188 -37.988281 23.160156 -38.878906 24.546875 -39.765625 C 25.929688 -40.660156 26.972656 -41.109375 27.671875 -41.109375 C 28.367188 -41.109375 28.820312 -41.03125 29.03125 -40.875 C 29.25 -40.71875 29.445312 -40.613281 29.625 -40.5625 C 29.800781 -40.519531 29.945312 -40.453125 30.0625 -40.359375 C 30.175781 -40.265625 30.269531 -40.144531 30.34375 -40 C 30.414062 -39.863281 30.554688 -39.707031 30.765625 -39.53125 C 30.972656 -39.363281 31.078125 -39.140625 31.078125 -38.859375 C 31.078125 -38.578125 31 -38.316406 30.84375 -38.078125 C 28.46875 -34.472656 25.546875 -29.9375 22.078125 -24.46875 C 26.722656 -26.882812 32.035156 -29.976562 38.015625 -33.75 C 43.992188 -37.53125 47.226562 -39.757812 47.71875 -40.4375 C 47.832031 -40.625 47.992188 -40.71875 48.203125 -40.71875 Z M 48.203125 -40.71875 "/></g></g></g><g fill="#ffffff" fill-opacity="1"><g transform="translate(202.974167, 55.99109)"><g><path d="M 44.34375 -15.546875 C 44.851562 -15.546875 45.109375 -14.878906 45.109375 -13.546875 C 45.109375 -12.222656 45.023438 -11.335938 44.859375 -10.890625 C 44.296875 -9.441406 42.988281 -7.820312 40.9375 -6.03125 C 38.882812 -4.238281 36.632812 -2.71875 34.1875 -1.46875 C 31.738281 -0.226562 29.726562 0.390625 28.15625 0.390625 C 27.40625 0.390625 26.769531 0.101562 26.25 -0.46875 C 25.738281 -1.050781 25.484375 -1.8125 25.484375 -2.75 C 25.484375 -4.425781 26.4375 -6.976562 28.34375 -10.40625 C 30.257812 -13.832031 32.578125 -17.410156 35.296875 -21.140625 C 30.773438 -15.898438 27.570312 -12.359375 25.6875 -10.515625 C 23.800781 -8.679688 22.117188 -7.113281 20.640625 -5.8125 C 19.160156 -4.507812 17.828125 -3.460938 16.640625 -2.671875 C 13.835938 -0.816406 11.609375 0.109375 9.953125 0.109375 C 8.304688 0.109375 7.132812 -0.34375 6.4375 -1.25 C 5.75 -2.15625 5.40625 -3.164062 5.40625 -4.28125 C 5.40625 -7.519531 7.300781 -12.078125 11.09375 -17.953125 C 14.882812 -23.828125 18.375 -28.632812 21.5625 -32.375 C 18.863281 -29.988281 17.003906 -28.796875 15.984375 -28.796875 C 14.960938 -28.796875 14.195312 -29.109375 13.6875 -29.734375 C 13.1875 -30.367188 12.9375 -31.082031 12.9375 -31.875 C 12.9375 -32.675781 13.3125 -33.425781 14.0625 -34.125 C 14.8125 -34.832031 15.359375 -35.1875 15.703125 -35.1875 C 16.046875 -35.1875 16.21875 -35.15625 16.21875 -35.09375 C 16.21875 -35.039062 16.078125 -34.835938 15.796875 -34.484375 C 15.515625 -34.140625 15.375 -33.898438 15.375 -33.765625 C 15.375 -33.640625 15.5 -33.578125 15.75 -33.578125 C 16.476562 -33.578125 18.070312 -34.316406 20.53125 -35.796875 C 22.988281 -37.273438 25.085938 -38.71875 26.828125 -40.125 C 27.296875 -40.519531 27.832031 -40.71875 28.4375 -40.71875 C 29.050781 -40.71875 29.640625 -40.566406 30.203125 -40.265625 C 30.242188 -40.359375 30.40625 -40.335938 30.6875 -40.203125 C 30.96875 -40.078125 31.25 -39.875 31.53125 -39.59375 C 31.8125 -39.3125 31.953125 -39.046875 31.953125 -38.796875 C 31.953125 -38.554688 31.875 -38.335938 31.71875 -38.140625 C 23.914062 -28.046875 19.015625 -21.472656 17.015625 -18.421875 C 12.941406 -12.210938 10.90625 -8.179688 10.90625 -6.328125 C 10.90625 -5.671875 11.179688 -5.34375 11.734375 -5.34375 C 12.296875 -5.34375 13.859375 -6.394531 16.421875 -8.5 C 23.472656 -14.226562 33.351562 -24.347656 46.0625 -38.859375 C 46.570312 -39.441406 47.050781 -39.71875 47.5 -39.6875 L 47.75 -39.6875 C 47.820312 -39.6875 48.03125 -39.71875 48.375 -39.78125 C 48.726562 -39.84375 49.296875 -39.875 50.078125 -39.875 C 51.953125 -39.875 52.890625 -39.53125 52.890625 -38.84375 C 52.890625 -38.539062 52.613281 -38.015625 52.0625 -37.265625 C 51.507812 -36.515625 50.359375 -34.898438 48.609375 -32.421875 C 46.867188 -29.953125 44.703125 -26.8125 42.109375 -23 C 39.515625 -19.195312 37.273438 -15.703125 35.390625 -12.515625 C 33.503906 -9.328125 32.5625 -7.300781 32.5625 -6.4375 C 32.5625 -6.414062 32.59375 -6.40625 32.65625 -6.40625 C 32.726562 -6.40625 33.023438 -6.539062 33.546875 -6.8125 C 35.160156 -7.65625 37.050781 -8.992188 39.21875 -10.828125 C 41.382812 -12.660156 42.75 -13.90625 43.3125 -14.5625 C 43.882812 -15.21875 44.226562 -15.546875 44.34375 -15.546875 Z M 44.34375 -15.546875 "/></g></g></g><g fill="#ffffff" fill-opacity="1"><g transform="translate(245.601254, 55.99109)"><g><path d="M 17.34375 -30.171875 C 16.726562 -29.722656 16.421875 -29.222656 16.421875 -28.671875 C 16.421875 -28.117188 16.832031 -27.84375 17.65625 -27.84375 C 18.007812 -27.84375 18.46875 -27.945312 19.03125 -28.15625 L 19.0625 -28.15625 C 19.15625 -28.15625 19.203125 -27.960938 19.203125 -27.578125 C 19.203125 -27.191406 19.164062 -26.960938 19.09375 -26.890625 C 17.164062 -25.515625 15.535156 -24.828125 14.203125 -24.828125 C 12.867188 -24.828125 11.898438 -25.203125 11.296875 -25.953125 C 10.703125 -26.703125 10.40625 -27.679688 10.40625 -28.890625 C 10.40625 -30.097656 11.070312 -31.378906 12.40625 -32.734375 C 13.738281 -34.097656 15.523438 -35.359375 17.765625 -36.515625 C 20.015625 -37.671875 22.800781 -38.625 26.125 -39.375 C 29.457031 -40.125 33.203125 -40.5 37.359375 -40.5 C 41.515625 -40.5 44.988281 -39.6875 47.78125 -38.0625 C 50.570312 -36.4375 51.96875 -34.585938 51.96875 -32.515625 C 51.96875 -30.453125 51.238281 -28.347656 49.78125 -26.203125 C 48.332031 -24.066406 46.515625 -22.207031 44.328125 -20.625 C 42.148438 -19.039062 39.726562 -17.742188 37.0625 -16.734375 C 34.40625 -15.722656 32.023438 -15.21875 29.921875 -15.21875 C 27.816406 -15.21875 26.1875 -16.0625 25.03125 -17.75 C 22.175781 -13.269531 20.242188 -10.207031 19.234375 -8.5625 C 18.222656 -6.925781 17.363281 -5.546875 16.65625 -4.421875 C 15.957031 -3.304688 15.414062 -2.429688 15.03125 -1.796875 C 14.644531 -1.160156 14.441406 -0.832031 14.421875 -0.8125 C 14.035156 -0.382812 13.613281 -0.171875 13.15625 -0.171875 L 11.78125 0.078125 L 11.109375 0.03125 L 10.625 0.03125 C 9.519531 0.03125 8.96875 -0.316406 8.96875 -1.015625 C 8.96875 -1.890625 10.8125 -5.203125 14.5 -10.953125 C 18.195312 -16.710938 21.679688 -21.9375 24.953125 -26.625 C 28.222656 -31.3125 30.128906 -33.945312 30.671875 -34.53125 C 31.222656 -35.113281 31.707031 -35.457031 32.125 -35.5625 C 32.550781 -35.664062 33.234375 -35.71875 34.171875 -35.71875 L 35.578125 -35.71875 C 35.816406 -35.71875 35.9375 -35.523438 35.9375 -35.140625 C 35.9375 -34.753906 35.890625 -34.488281 35.796875 -34.34375 C 34.148438 -32.03125 31.171875 -27.472656 26.859375 -20.671875 C 27.003906 -20.367188 27.25 -20.179688 27.59375 -20.109375 C 27.945312 -20.035156 28.320312 -20 28.71875 -20 L 29.53125 -20 C 31.25 -20 33.113281 -20.414062 35.125 -21.25 C 37.132812 -22.082031 38.894531 -23.078125 40.40625 -24.234375 C 41.925781 -25.398438 43.195312 -26.613281 44.21875 -27.875 C 45.238281 -29.144531 45.75 -30.226562 45.75 -31.125 C 45.75 -32.03125 45.46875 -32.835938 44.90625 -33.546875 C 44.34375 -34.265625 43.578125 -34.828125 42.609375 -35.234375 C 40.691406 -36.046875 38.367188 -36.453125 35.640625 -36.453125 C 32.910156 -36.453125 29.617188 -35.742188 25.765625 -34.328125 C 21.921875 -32.910156 19.113281 -31.523438 17.34375 -30.171875 Z M 17.34375 -30.171875 "/></g></g></g></svg>